<?xml version="1.0" standalone="no"?>
<!DOCTYPE svg PUBLIC "-//W3C//DTD SVG 20010904//EN"
 "http://www.w3.org/TR/2001/REC-SVG-20010904/DTD/svg10.dtd">
<svg version="1.0" xmlns="http://www.w3.org/2000/svg"
 width="1000.000000pt" height="1000.000000pt" viewBox="0 0 1000.000000 1000.000000"
 preserveAspectRatio="xMidYMid meet">
<metadata>
Created by potrace 1.14, written by Peter Selinger 2001-2017
</metadata>
<g transform="translate(0.000000,1000.000000) scale(0.100000,-0.100000)"
fill="#000000" stroke="none">
<path d="M4980 9651 c0 -9 -101 -186 -149 -261 -9 -14 -21 -34 -27 -45 -6 -11
-71 -123 -146 -250 -123 -209 -356 -606 -398 -680 -10 -16 -115 -196 -235
-400 -120 -203 -229 -390 -243 -415 -13 -25 -28 -49 -32 -55 -4 -5 -63 -104
-130 -220 -179 -306 -278 -475 -355 -605 -37 -63 -75 -128 -85 -145 -9 -16
-57 -97 -105 -180 -92 -157 -176 -299 -205 -350 -9 -16 -43 -72 -74 -124 -31
-51 -56 -95 -56 -96 0 -4 -204 -352 -220 -375 -6 -8 -14 -24 -19 -35 -5 -11
-21 -37 -35 -58 -14 -21 -26 -40 -26 -42 0 -3 -159 -276 -345 -590 -45 -77
-108 -185 -140 -240 -31 -55 -61 -104 -65 -110 -4 -5 -19 -30 -32 -55 -14 -25
-79 -135 -143 -245 -65 -110 -139 -236 -165 -280 -72 -123 -451 -769 -563
-960 -55 -93 -130 -222 -167 -285 -128 -220 -260 -445 -270 -460 -5 -8 -22
-37 -38 -65 -46 -81 -57 -100 -62 -105 -3 -3 -12 -19 -21 -35 -9 -17 -53 -93
-99 -170 -45 -77 -94 -160 -108 -185 -13 -25 -29 -50 -34 -57 -9 -11 28 -44
708 -615 43 -36 203 -171 354 -298 151 -128 280 -234 287 -237 10 -4 343 216
1273 842 140 94 433 290 650 436 217 145 397 266 400 269 3 3 96 65 207 139
112 74 201 136 199 138 -2 3 -344 5 -760 5 -416 0 -756 2 -756 5 0 5 136 247
167 298 7 11 16 27 20 35 4 8 39 71 79 140 39 69 82 145 96 170 14 25 107 188
207 363 100 175 189 332 199 350 10 18 74 130 142 250 121 212 138 242 190
337 14 25 28 47 31 50 3 3 27 46 54 95 27 50 66 118 87 153 21 34 38 64 38 66
0 2 30 54 66 117 36 62 81 140 99 173 18 34 106 189 195 346 90 157 218 382
285 500 67 118 134 235 148 260 15 25 50 87 78 138 29 50 55 92 59 92 4 0 13
-12 21 -27 8 -16 44 -80 80 -143 36 -63 77 -135 91 -160 155 -274 284 -500
304 -531 13 -21 24 -40 24 -43 0 -2 68 -122 150 -266 83 -145 150 -264 150
-266 0 -1 19 -35 43 -76 24 -40 55 -93 69 -118 14 -25 62 -110 108 -190 45
-80 94 -165 108 -190 33 -59 251 -442 557 -980 137 -239 262 -460 278 -490 16
-30 33 -59 37 -65 4 -5 19 -30 32 -55 14 -25 48 -85 77 -134 28 -49 51 -90 51
-92 0 -2 14 -26 30 -52 17 -27 30 -52 30 -55 0 -3 -321 -6 -712 -6 -392 0
-737 0 -766 0 l-52 -1 345 -233 c190 -127 367 -246 393 -262 26 -17 110 -73
187 -125 77 -52 145 -97 150 -99 6 -2 12 -7 15 -10 3 -4 140 -97 305 -208 165
-110 462 -309 660 -441 198 -133 365 -245 370 -249 32 -25 305 -203 313 -203
4 0 17 8 28 18 22 20 152 130 594 501 179 150 341 287 360 303 19 17 110 93
203 171 92 77 167 144 167 149 0 5 -62 114 -137 243 -138 234 -169 288 -196
335 -13 25 -198 341 -216 370 -13 21 -300 509 -395 673 -45 76 -88 150 -97
165 -9 15 -32 54 -51 87 -19 33 -58 98 -85 145 -27 47 -105 179 -172 294 -68
115 -130 221 -139 237 -10 15 -44 74 -77 130 -66 113 -64 110 -190 324 -49 83
-93 159 -99 170 -6 11 -37 63 -68 115 -51 86 -181 308 -311 530 -27 47 -58 99
-68 115 -10 17 -24 41 -32 55 -8 14 -44 77 -82 140 -37 63 -76 129 -85 145
-10 17 -41 71 -70 120 -29 50 -61 104 -70 121 -10 17 -37 62 -59 99 -23 37
-41 69 -41 71 0 3 -11 21 -24 42 -13 20 -56 93 -96 162 -41 69 -100 169 -132
223 -32 54 -58 99 -58 101 0 2 -29 52 -65 111 -36 59 -65 109 -65 111 0 2 -11
21 -24 42 -13 20 -55 91 -94 157 -38 66 -138 237 -222 380 -84 143 -223 379
-308 525 -85 146 -200 342 -255 435 -55 94 -108 184 -117 200 -10 17 -48 82
-85 145 -92 157 -291 495 -390 665 -134 229 -135 231 -135 206z"/>
</g>
</svg>
